<?xml version="1.0" encoding="UTF-8"?><svg id="_イヤー_2" xmlns="http://www.w3.org/2000/svg" viewBox="0 0 1257 361.55218"><defs><style>.cls-1{fill:#fff;}.cls-2{fill:#090909;}.cls-3{fill:#0c0c0c;}.cls-4{fill:#dadbdb;}.cls-5{fill:#a6a6a6;}.cls-6{fill:#0a0a0a;}.cls-7{fill:#d9dada;}.cls-8{fill:#029d62;}.cls-9{fill:#0a0909;}.cls-10{fill:#080808;}.cls-11{fill:#119a65;}.cls-12{fill:#0b0b0b;}.cls-13{fill:#ededed;}</style></defs><g id="_イヤー_1-2"><g><g><path class="cls-1" d="M96.64879,119.48309c-10.62179,7.87329-20.28636,17.02405-26.42528,28.73408s-10.24529,24.36325-15.61401,36.4458c-9.34876,21.03983-22.57738,40.34829-38.82159,56.6639-3.52321,3.5387-7.51093,8.35031-5.49337,12.91812,.89868,2.03464,2.85426,3.4231,4.90589,4.28227,7.82805,3.2782,16.65929,.03579,24.80894-2.33234,8.14965-2.36813,18.21371-3.34666,23.93439,2.92221,5.12626,5.6175,4.22372,14.21788,4.28892,21.82252s3.68643,14.77455,10.54848,18.05283c7.45155,3.5599,14.56463-1.02775,18.21658-7.4687,4.42099-7.79731,7.09198-20.84462,11.51297-28.64193,3.64481,5.53666,4.22111,12.46987,6.22669,18.78785s6.61918,12.8428,13.24165,13.12947c8.01809,.34708,13.18413-8.23442,15.99317-15.75236,3.18827-8.53289,5.74272-17.30253,7.63534-26.21283,16.66226-11.06065,35.8411-20.36221,55.81759-21.31548,21.72597-1.03675,38.27722-7.6256,51.4078-29.119,5.14702-8.42514,10.85107-17.23643,19.55377-21.89879,4.45236-2.3853,9.58642-3.22904,14.10999-5.47636,10.55718-5.24483,24.44728-12.44077,32.34987-21.18785,10.43986-11.55549,17.90009-23.76375,22.54882-38.62677,2.75161-8.79751,.76114-18.53025-3.41719-26.74665s-10.38346-15.19622-16.51894-22.07542c-3.89498-4.36712-7.43388-11.21563-13.28538-11.26616-39.57819-.34181-42.46005,16.40888-45.99473,31.23573"/><path class="cls-1" d="M123.53366,116.79229L180.111,22.33066c3.66317-6.11604,7.54785-12.46247,13.60188-16.22723s14.95204-3.99161,19.55941,1.44869c6.05364,7.14802,1.33408,17.95684-3.5222,25.96666-31.38923,51.77262-62.77845,103.54523-94.16767,155.31784-5.35644,8.83478-10.71559,17.67429-15.61115,26.77254-14.76229,27.4353-25.55557,57.58298-46.17116,80.94145l-30.54995,39.54682-12.20009-10.53644,15.25011-43.25486L123.53366,116.79229Z"/><path class="cls-8" d="M152.81225,111.89699c-4.00334,7.04376-7.92574,14.13497-12.0242,21.12293-16.6897,28.45626-33.43436,56.8803-50.15181,85.32029-.49855,.84814-.92007,1.74158-1.37778,2.61374-6.18131,3.80602-12.44214,7.49007-18.51631,11.45975-4.3069,2.81471-7.82361,6.52651-9.68228,11.43434-2.22177,5.86655-1.08314,9.74617,3.52894,13.41039,1.44745,1.15004,3.12052,2.01612,4.69032,3.01214-5.59442,8.68434-11.18885,17.36869-16.78297,26.05265-5.00825-5.97955-11.02968-10.58689-18.29525-13.50922,4.41457-7.35769,8.80419-14.73049,13.24757-22.07078,42.57083-70.32536,85.15333-140.64371,127.72437-210.96897,4.50737-7.44593,9.02114-14.88906,13.42589-22.39572,4.35241-7.4174,8.38476-9.16332,16.77177-6.99853,7.35436,1.89825,7.32391,1.88005,3.56785,8.16591-17.01335,28.47212-34.00724,56.95589-51.01327,85.43237-.50603,.84733-1.06906,1.66066-1.60656,2.48923-1.02693,.28153-2.12401,.41989-3.05999,.88352-1.07611,.53305-2.53979,1.1534-2.89468,2.09158-.73734,1.94916,1.03795,2.19381,2.44839,2.45438Z"/><path class="cls-2" d="M9.24224,339.86122c-1.32625,.09683-2.6525,.19363-3.97875,.29042-.03408-1.32835-.3333-2.71767-.04493-3.97187,.53668-2.33409,1.4156-4.5895,2.15207-6.87767l-.91939,.21174c-.65377-1.34363-1.30755-2.68731-1.96132-4.03094,1.38395-.61598,2.76791-1.232,4.84648-2.15716,3.09944-9.53804,6.48654-19.9613,9.91781-30.52049-1.74025-1.09853-5.48371,.37723-4.76982-3.17443,.72815-3.62266,4.0214-1.34177,6.37991-2.03401,.40859-1.15769,.6296-2.6586,1.41717-3.75111,.68665-.95249,2.01217-1.44447,3.05542-2.13994,.45311,1.15263,1.18478,2.28412,1.2745,3.46441,.07698,1.01266-.58016,2.08111-.98252,3.3442,.7001,.25844,1.36745,.50483,2.03481,.75118,6.85384,2.18162,12.69421,6.01711,17.86385,10.94709l-.46656,4.00951c-1.21371-.41564-2.75081-.49561-3.58785-1.30219-4.87113-4.69374-10.44163-8.00511-17.40141-9.6485-3.58652,11.03568-7.13636,21.95852-10.2678,31.594,2.87596,3.00445,5.21669,5.44977,7.64784,7.98954,6.12652-6.96775,12.81658-14.57731,19.50835-22.18538,.58082-.66037,1.05948-1.53924,1.7912-1.90281,.76634-.38083,2.15202-.67105,2.59884-.26519,.65278,.59293,1.05439,1.89334,.92033,2.79684-.12673,.85404-1.03534,1.62694-1.68175,2.36389-10.69006,12.18666-21.39543,24.35985-32.08954,36.54294-1.13418,1.29208-2.21921,2.62726-3.83068,4.54042,2.01946,.09089,3.36932,.20463,4.7192,.20479,68.55585,.00861,137.11169,.0076,205.66755,.00756,.55198,0,1.10407-.00744,1.65591,.00125,1.84224,.02907,4.21739-.41455,4.21373,2.35148-.0037,2.78236-2.39514,2.31137-4.22044,2.31153-70.98456,.00639-141.96913,.01613-212.95363-.04549-2.15275-.00186-5.31607-.02976-6.24382-1.31711-1.85236-2.5703,1.69993-3.94672,2.81152-5.91943,.10696-.18983,.26569-.3505,.40025-.5244,.141-.25678,.28213-.51393,.42326-.77104l-.03541,.04245c4.29566-4.60046,8.59121-9.20088,12.81185-13.72105-.76481-1.14871-1.23453-1.89023-1.7436-2.60365-.2535-.35527-.57014-.66765-.8735-.98488-2.27732-2.3812-3.07945-2.19844-4.18493,.92528-.6103,1.7245-1.24855,3.4391-1.87419,5.15818Z"/><path class="cls-7" d="M347.08782,175.11942c-3.06146,7.14262-9.25191,9.25243-16.11858,8.89283-8.602-.45049-17.16827-1.74284-25.7226-2.87818-4.54863-.60367-9.03944-1.64305-13.55633-2.48575,8.26868-7.23545,16.53737-14.4709,24.80605-21.70632,.83965-.25304,1.77674-.34771,2.49865-.79208,1.50928-.929,2.90511-2.04246,4.34752-3.08016-.20083,2.05837-.1889,4.16527-.64485,6.16546-1.09437,4.80056-2.50888,9.52933-3.5477,14.3403-.20353,.94285,.7038,2.12559,1.09878,3.19768,1.02406-.5745,2.10739-1.0691,3.04242-1.76342,.3653-.27126,.39935-.99064,.58093-1.50708,3.31036-9.41487,4.54454-19.16318,4.67106-29.08933,1.49731-1.4941,3.31186-2.78226,4.43813-4.51723,5.46946-8.42562,10.74574-16.97652,16.12116-25.46356,.44261-.69876,1.11527-1.25183,1.68096-1.87262,.24235,.84452,.55707,1.6756,.71641,2.5355,3.52408,19.01689,2.16731,37.6249-4.55037,55.82394-.44928,1.21714,.0697,2.7917,.13836,4.20002Z"/><path class="cls-6" d="M152.81225,111.89699c-1.41045-.26056-3.18573-.50522-2.44839-2.45438,.35489-.93818,1.81857-1.55853,2.89468-2.09158,.93598-.46363,2.03306-.60199,3.05999-.88352,1.42324-.14258,2.85437-.46161,4.26571-.39013,2.48371,.12576,3.67655-1.23784,4.83468-3.1977,15.00872-25.39846,30.08464-50.75721,45.14513-76.12508,.61822-1.04135,1.30587-2.04545,1.8648-3.11717,.84545-1.62113,2.19458-2.58046,3.64194-1.29626,.6891,.61143,.86763,2.68795,.36718,3.60295-2.79706,5.11397-5.87417,10.07466-8.8523,15.08967-12.08487,20.35034-24.16921,40.70097-36.24963,61.05395-.43933,.74019-.83526,1.50613-1.53546,2.77468,7.41804-1.08978,14.35324-2.05339,21.27004-3.13464,25.47738-3.98266,50.74503-8.98524,75.6541-15.70838,1.62002-.43725,3.38488-1.11757,4.10299,1.15443,.77912,2.46496-1.12364,2.95168-2.88239,3.42203-24.38526,6.52178-49.09347,11.49904-74.02367,15.39314-8.05531,1.25826-16.125,2.44643-24.21565,3.44334-2.5277,.31149-3.7594,1.63818-4.94235,3.6365-18.61919,31.45271-37.29241,62.87342-55.95288,94.30169-.39383,.66329-.62771,1.6067-1.20922,1.93329-1.07607,.60436-2.35455,.84832-3.54871,1.24239-.17841-1.16998-.87701-2.60183-.44317-3.4636,1.6796-3.33636,3.71593-6.4935,5.62664-9.71307,16.57475-27.92851,33.15115-55.85602,49.72691-83.78392,.44012-.74152,.87887-1.48385,1.67908-2.83504-2.99095,.43792-5.41051,.79216-7.83006,1.14641Z"/><path class="cls-6" d="M198.81814,0c7.27256,.28454,13.50556,3.249,19.32438,7.14953,.70105,.46992,.53987,2.22614,.77833,3.38618-1.17036,.11907-2.5049,.66283-3.48311,.28475-4.58471-1.77207-8.92781-4.32621-13.62829-5.60311-6.28831-1.70824-9.75142,.21969-13.13011,5.84458-49.95032,83.15858-99.90315,166.31567-149.8581,249.47147-.39671,.66037-.68868,1.58734-1.28092,1.87845-.86921,.4273-2.20883,.82079-2.89505,.43108-.65311-.3709-1.18738-1.90398-.9546-2.68049,.46277-1.54375,1.44004-2.94785,2.28858-4.35926C83.85923,176.16084,131.7491,96.52445,179.63127,16.88342c1.81602-3.02056,3.69853-6.01212,5.31851-9.13721,2.96517-5.72009,7.98231-7.53386,13.86836-7.74621Z"/><path class="cls-2" d="M316.49637,156.94199c-8.26868,7.23543-16.53737,14.47088-24.80605,21.70632-4.3886,2.50676-8.51694,5.93987-13.2372,7.26628-4.9688,1.39615-6.94947,4.96006-9.42568,8.44153-7.50007,10.54472-15.38377,20.73129-25.87778,28.54952-10.1594,7.56895-21.26527,12.41962-34.25844,11.74344-.77055-.04013-1.7502,.21435-2.26799-.16537-1.00334-.73578-1.74692-1.82578-2.59813-2.76894,.97871-.60769,1.99679-1.79578,2.93-1.73251,8.46787,.57413,16.46576-1.03872,23.96386-4.9208,10.36467-5.36618,18.78007-13.12789,25.83563-22.28179,8.33916-10.81923,16.02954-22.14737,24.5673-32.80124,4.78972-5.9769,10.6859-11.07524,16.17401-16.47753,1.08099-1.06409,2.56807-2.72369,4.15106-.76238,1.43877,1.78258,.36429,3.15047-1.23418,4.39015-7.8207,6.06541-14.23578,13.46424-20.04851,21.41877l-.36312,.70835,1.05507,.14871c16.95677-9.3016,30.55644-22.25229,41.35454-38.20589,.67291-.99412,1.03748-2.48959,.91388-3.6866-2.09947-20.33528-9.94467-37.96487-24.93422-52.13917-3.19052-3.01697-6.69423-5.32002-11.49814-4.76715-.84782,.09757-1.87143-1.33258-2.81386-2.05726,.80561-.82006,1.51058-2.20244,2.43339-2.36762,5.4032-.96711,9.98562,1.18489,13.91989,4.61329,10.70729,9.33058,18.0139,21.00869,22.69005,34.31056,1.90992,5.43297,3.15357,11.10019,4.84204,17.17033,1.23261-2.4139,2.30955-4.51683,3.38071-6.62266,.71051-1.39672,1.52339-3.23303,3.31141-1.81165,.82631,.6569,1.27284,2.83428,.82703,3.85943-1.52958,3.51755-3.70368,6.75198-5.28368,10.25161-.90127,1.99618-1.12647,4.29763-1.65609,6.46162-.12651,9.92617-1.36069,19.67448-4.67106,29.08935-.18158,.51644-.21562,1.23582-.58093,1.50708-.93503,.69432-2.01836,1.18892-3.04242,1.76342-.39498-1.07209-1.30231-2.25483-1.09878-3.19768,1.03882-4.81097,2.45333-9.53974,3.5477-14.3403,.45595-2.00019,.44402-4.10709,.64481-6.16546,.17592-1.55606,.35192-3.1121,.6324-5.59193-2.90269,3.6734-5.19061,6.56879-7.47852,9.46417Z"/><path class="cls-2" d="M69.27913,260.27056c-1.5698-.99602-3.24287-1.86209-4.69032-3.01214-4.61208-3.66422-5.75071-7.54384-3.52894-13.41039,1.85867-4.90782,5.37539-8.61963,9.68228-11.43434,6.07416-3.96968,12.335-7.65374,18.51631-11.45975,12.82251-3.85728,25.63129-7.76027,38.47106-11.55834,11.07541-3.27616,21.60029-7.51255,30.11971-15.72438,.70402-.67861,2.46899-.25656,3.74102-.34589-.25316,1.32815-.04152,3.12227-.83247,3.91124-6.75455,6.73751-14.97164,11.2374-23.97318,14.058-10.16694,3.18575-20.48849,5.89442-30.79298,8.62093-13.13108,3.47439-24.51178,10.19634-35.1218,18.42928-.26124,.20271-.5206,.41057-.76066,.63741-3.12264,2.95082-6.01593,6.23571-5.14318,10.83136,.85365,4.49504,4.92285,5.90898,8.71432,7.17969,2.28383,.76542,4.68713,1.17436,7.03674,1.74348,2.43392,.30144,4.86782,.60288,7.30174,.90434,17.16853,1.14133,34.31958,.28223,50.70454-4.83242,10.80726-3.37356,20.77607-9.37498,31.24087-13.92232,8.13866-3.53652,16.45737-6.66004,24.71063-9.93037,1.66733-.66066,3.3679-.83257,3.97737,1.40446,.63525,2.33157-1.17024,2.49105-2.77134,3.13733-8.53998,3.44726-17.03547,7.00739-25.50846,10.61743-10.69605,4.55722-20.99072,10.60219-32.11151,13.49663-19.53321,5.08401-39.60449,7.62673-59.83298,3.37228-3.10257-.65255-6.10175-1.79673-9.14877-2.71353Z"/><path class="cls-6" d="M11.19608,249.56697c3.88641-2.77086,7.80724-5.49522,11.64334-8.33404,1.67983-1.2431,3.05157-2.94809,4.82626-3.99916,.95764-.56718,2.47023-.19731,3.73246-.25019-.21964,1.23414,.00557,3.01404-.7308,3.61427-4.94518,4.03104-10.09436,7.81186-15.1788,11.67196-.32325,.24542-.65797,.4757-.94472,.68233,.10727,.37452,.11407,.71245,.22992,.75523,1.52353,.56295,3.69728,1.01213,2.84974,3.09623-.54393,1.33751-2.4831,3.00577-3.74325,2.96255-2.44961-.08398-4.86149-1.26798-7.11769-2.74882-1.212,.50691-2.38617,1.23162-3.64813,1.45078-.98141,.17046-2.07223-.28909-3.11442-.46863,.40144-1.2171,.50736-3.23212,1.25676-3.50967,2.85532-1.05748,3.28577-3.172,4.34969-5.6885,1.51771-3.58979,4.34097-6.86744,7.25262-9.58664,12.69447-11.85542,23.56524-25.15005,31.21976-40.72775,5.47046-11.13294,9.91746-22.77389,14.69785-34.23958,6.80505-16.32171,16.32629-30.70133,29.92417-42.16941,5.11769-4.31612,10.8031-7.64642,17.61795-8.47006,1.73534-.20976,3.56894-.33114,5.25168,.01739,1.02869,.21306,1.8559,1.3989,2.77359,2.14786-1.10848,.78268-2.27336,2.30555-3.31616,2.22608-6.09244-.46422-11.3203,1.59932-16.01891,5.10121-13.21561,9.84967-22.63236,22.81216-29.43353,37.61716-4.95531,10.78688-8.87504,22.04662-13.73695,32.87992-8.50589,18.95287-20.76817,35.25062-36.06504,49.29019-1.92735,1.76892-3.66666,3.7427-5.49309,5.62155l.91568,1.05776Zm3.14015,4.7222l-.61161-.89791-1.91478,1.25404,.44753,.75031c.69296-.3688,1.38591-.73762,2.07887-1.10644Z"/><path class="cls-9" d="M347.08782,175.11942c-.06865-1.40832-.58764-2.98288-.13836-4.20002,6.71768-18.19904,8.07445-36.80705,4.55037-55.82394-.15934-.85991-.47406-1.69098-.71641-2.5355-3.96912-18.7854-12.27504-35.31695-26.10747-48.74982-12.50473-12.14354-26.39656-12.77594-39.97238-1.52722-5.80768,4.81214-10.59602,10.85292-15.8626,16.32094-1.06906,1.10999-1.92686,3.23669-3.93204,1.64992-2.04128-1.61538-.98508-3.35796,.42979-4.78303,6.19526-6.23984,11.83817-13.21997,18.77596-18.49096,14.63699-11.12043,30.57981-9.6508,43.60033,3.1545,16.72881,16.45226,25.90997,36.7066,29.18414,59.72245,2.55889,17.98768,.78527,35.58018-5.66054,52.65396-.80314,2.12726-1.89431,3.12223-4.15078,2.60873Z"/><path class="cls-12" d="M130.47208,298.48379c-5.58461-.02301-10.02541-2.37105-13.27197-6.8357-4.6756-6.42992-6.3531-13.95126-7.29205-21.64048-.11127-.91093,1.36377-2.01561,2.10349-3.03049,.80251,.82683,2.04606,1.52408,2.33349,2.50229,1.4831,5.04703,2.20839,10.38226,4.23134,15.18132,1.27532,3.02556,3.94247,5.93617,6.73245,7.74744,4.90683,3.18563,11.44655,1.55913,14.66836-3.84717,2.7097-4.54701,4.1981-9.82426,6.19439-14.7914,.2842-.70707,.16915-1.67348,.61766-2.19258,.67768-.7843,1.87529-1.9244,2.51133-1.73978,.82964,.24081,2.01377,1.77225,1.86126,2.50031-1.72586,8.23974-3.96354,16.32094-10.41394,22.35014-2.8871,2.69859-6.26512,3.81394-10.2758,3.79611Z"/><path class="cls-12" d="M80.67112,257.76427c-4.16504-1.39167-7.57103-3.64805-8.725-8.18501-.34372-1.3514-.52422-2.8792-.25126-4.21852,.3439-1.68744,.47313-4.21458,3.24757-3.54515,2.4232,.58465,1.44809,2.46778,1.4227,4.25182-.02416,1.69749,.83526,4.14479,2.12818,4.9621,2.31174,1.46137,5.18317,2.3855,7.92461,2.74832,6.1753,.81721,12.253-.10652,18.53624-2.12983-2.2396-5.48335-4.38803-10.74304-6.536-16.0029-.37363-.91495-1.22029-1.96473-1.00861-2.71534,.33322-1.18154,1.22846-2.36258,2.21575-3.10495,.29473-.22163,2.15842,.82105,2.50823,1.62876,2.22066,5.12727,4.2237,10.34897,6.28495,15.54491,.36423,.91813,.70818,1.84869,.98745,2.79534,1.04094,3.52867,.12722,5.78853-3.47502,6.48329-5.91979,1.14176-11.95055,1.70811-17.93453,2.51705-2.44174-.34331-4.8835-.68659-7.32526-1.02988Z"/><path class="cls-6" d="M67.22678,289.74068c.23994-1.29374,.19451-2.75147,.81291-3.82777,.46841-.81527,1.89398-1.68953,2.68902-1.52833,.7228,.14653,1.79853,1.79057,1.63587,2.5392-1.03382,4.75815,.75859,8.30499,4.52529,10.84836,3.90135,2.63426,7.98285,1.89241,11.88445-.26277,6.55599-3.62152,9.55213-9.8243,11.75678-16.53199,.92613-2.81778,1.42252-5.78443,2.46111-8.55332,.34195-.91158,1.77417-1.41423,2.70784-2.10387,.60979,.99818,1.91528,2.16298,1.72228,2.96895-2.03071,8.48047-4.35775,16.88795-10.26881,23.6911-7.4351,8.55729-19.27503,9.45403-26.09783,1.67881-2.05564-2.34262-3.03599-5.62881-4.50892-8.48273l.68-.43565Z"/><path class="cls-10" d="M34.2009,272.81399c7.26558,2.92234,13.28701,7.52967,18.29526,13.50922,1.45747,2.54531,3.14399,4.99564,4.25579,7.68364,.42053,1.0167-.05406,3.16792-.87762,3.77488-1.68235,1.23997-2.50488-.34068-3.29669-1.81381-1.27853-2.37877-2.83144-4.61004-4.26848-6.90358,.01979-.17576-.05741-.28525-.23161-.32847-1.03391-1.12239-2.06783-2.24478-3.10175-3.36713l-.5463-.54611c-.83485-.75442-1.66971-1.50888-2.50455-2.2633l.00419-.01706c-6.09476-4.80974-13.01162-7.19768-20.78686-7.04243-1.69548,.03384-3.58935,.16593-3.64993-2.19254-.0652-2.53831,1.88076-2.7021,3.7293-2.45284,4.33566,.5846,8.65394,1.29819,12.97926,1.95953Z"/><path class="cls-4" d="M44.42949,284.82263l.5463,.54611c-.12224,2.18741,.75549,3.45365,3.10174,3.36713,.17421,.04322,.25142,.15271,.23162,.32847-.01999,.32333-.18496,.7505-.03869,.9548,3.24293,4.52987,.0883,7.31526-2.74293,10.19353-5.16964-4.92998-11.01001-8.76547-17.86385-10.94709l3.79531-10.67984c2.94599,1.32629,5.18391,2.40452,7.48207,3.33381,.92817,.37533,1.98805,.42494,2.98804,.62273l-.00465,.01775c-.49518,2.22776,.93029,2.32787,2.50504,2.26261Z"/><path class="cls-3" d="M60.06876,290.43776c-.62687-1.93329-1.70957-3.51503-1.29351-4.26318,3.84604-6.91535,7.89586-13.72088,12.07252-20.44281,.3833-.61689,2.05736-.43175,3.13205-.61901,.16429,1.16545,.85389,2.61269,.40515,3.44928-2.38892,4.45353-5.05888,8.75662-7.64011,13.10664-1.23408,2.07982-2.42455,4.19004-3.76445,6.20007-.49115,.73675-1.35674,1.22391-2.91164,2.569Z"/><path class="cls-11" d="M9.24224,339.86122c.62564-1.71908,1.26389-3.43368,1.87419-5.15818,1.10548-3.12373,1.90762-3.30648,4.18493-.92528,.30336,.31723,.62,.62961,.8735,.98488,.50908,.71342,.9788,1.45494,1.7436,2.60365-4.22064,4.52016-8.5162,9.12058-12.81185,13.72105,1.37847-3.74197,2.75705-7.48402,4.13563-11.22612Z"/><path class="cls-5" d="M80.67112,257.76427c2.44175,.34329,4.88351,.68657,7.32526,1.02988l.0224,.84691c-2.43392-.30146-4.86782-.6029-7.30174-.90434l-.04592-.97245Z"/><path class="cls-11" d="M5.14203,351.04488c-.14113,.25711-.28227,.51425-.42326,.77104,.14117-.25723,.2822-.51413,.42326-.77104Z"/><path class="cls-13" d="M316.49637,156.94199c2.28792-2.89539,4.57584-5.79078,7.47852-9.46417-.28048,2.47983-.45648,4.03587-.6324,5.59193-1.44237,1.0377-2.8382,2.15116-4.34748,3.08016-.72191,.44437-1.659,.53904-2.49865,.79208Z"/></g><g><path d="M460.24319,113.95304v63.95251c-2.45627,.89857-29.80409,1.10166-33.78916,.27352V50.20004c4.85625,0,9.5947-.12086,14.3178,.0944,1.03714,.04728,2.11515,1.18442,3.01322,1.99742,15.58179,14.10547,31.13768,28.23952,46.70197,42.36434,1.08354,.98332,2.18847,1.94315,3.41046,3.0265,.987-.84256,1.84909-1.53815,2.66679-2.28244,15.71142-14.30082,31.44282-28.57996,47.0907-42.94992,1.80853-1.66084,3.58329-2.46389,6.05252-2.33717,3.72078,.191,7.45865,.0498,11.11303,.0498,.72729,2.85262,.82888,124.80291,.14072,128.29638h-33.34333c-.23934-5.48833-.07402-10.899-.10435-16.30142-.02998-5.33759-.00656-10.67545-.00656-16.0132v-32.21879c-.38439-.13492-.48918-.18601-.59959-.2062-.09986-.01828-.2128-.02536-.30735,.0037-.10543,.03237-.20962,.09677-.29213,.17169-10.67572,9.6957-21.34938,19.39366-32.37108,29.40762-11.02326-9.93646-22.00764-19.83789-32.99201-29.7393l-.70164,.38959Z"/><path d="M1096.70209,111.34317c1.3473,1.38695,2.48611,2.49291,3.55098,3.66581,9.75361,10.74267,13.54056,23.09616,8.87583,37.10303-4.71935,14.1706-14.8499,22.75425-29.45233,25.90645-2.52741,.5456-5.19621,.59498-7.80047,.60134-19.4272,.04747-38.85473,.0264-58.28214,.02679-1.10163,.00002-2.20326,0-3.42159,0V50.36464c1.14022-.07368,2.12899-.19272,3.11784-.19329,17.60966-.01019,35.21953-.06326,52.82881,.0099,20.86268,.08666,38.04923,16.8361,38.55606,37.63736,.18135,7.44906-2.02941,14.32374-6.04992,20.60404-.30583,.47785-.64388,.93502-.95663,1.4086-.30616,.46362-.59917,.93595-.96645,1.51192Zm-52.86857,39.52505c8.01871,0,15.61726,.13662,23.20783-.05082,4.61327-.11391,8.56534-3.3799,9.84845-7.65,1.37603-4.57971,.1811-8.51213-3.31926-11.71185-2.18353-1.99603-4.84108-2.88187-7.79231-2.88345-6.57998-.00352-13.16004-.01344-19.73986,.01469-.74372,.00318-1.48644,.23324-2.20485,.35391v21.92752Zm-.03131-50.50155c5.93593,0,11.4846,.161,17.01811-.0577,3.57438-.14124,6.47948-1.94627,8.46934-4.99836,4.72018-7.23953-.1413-16.74542-8.88732-17.172-4.63908-.22628-9.29774-.06592-13.94739-.0435-.86071,.00416-1.7205,.18336-2.65273,.28999v21.98156Z"/><path d="M839.58268,178.63572c-4.3171,0-8.27879,.05783-12.23614-.04801-.80683-.02159-1.67058-.55277-2.37483-1.04094-.73535-.50969-1.31242-1.24853-1.95426-1.89159-18.13602-18.17081-36.27112-36.34256-54.40826-54.51225-.85817-.85974-1.73373-1.70219-3.19082-3.1308v60.38632h-33.24732c-.73181-2.64428-.82115-124.63746-.03759-128.21657,3.98067,0,8.04598-.08595,12.10209,.06889,.86316,.03293,1.82458,.80605,2.51526,1.47173,3.1076,2.99503,6.1326,6.07562,9.18995,9.12278,15.60906,15.55703,31.21846,31.11372,46.82977,46.66848,.86046,.85737,1.73919,1.69649,2.98,2.42526,.39959-6.62036,.36295-13.13276,.36932-19.64369,.00654-6.69982,.00146-13.39962,.00146-20.09944v-19.83739h33.4614V178.63572Z"/><path d="M670.76315,361.34621h-33.37576v-48.55285h-40.82502v48.48399h-33.27959c-.73106-2.6361-.81558-124.7596-.07885-128.05791h33.21198v45.25135h40.8331v-45.24798h33.51415v128.1234Z"/><path d="M1192.82893,178.62091c-35.31724,.10432-64.00104-28.44346-64.09996-63.79611-.0995-35.56116,28.46015-64.54117,63.7097-64.64746,35.47769-.107,64.50296,28.78159,64.56125,64.25717,.05812,35.39075-28.6256,64.0814-64.17099,64.1864Zm.04396-33.63546c16.83876-.06906,30.63636-13.89607,30.58731-30.65233-.04913-16.78172-13.8787-30.57089-30.69114-30.60149-16.744-.03047-30.52437,13.83474-30.51529,30.70319,.00899,16.83025,13.82916,30.6195,30.61912,30.55063Z"/><path d="M714.34889,178.40499c-1.38615,.10721-2.25214,.2311-3.11834,.23243-9.20519,.01419-18.411-.04626-27.61514,.05094-2.08811,.02205-3.28866-.57917-4.15219-2.56536-2.07379-4.76984-4.38429-9.43692-6.60721-14.16228h-52.65785c-1.80638,3.89265-3.62407,7.89565-5.51494,11.86382-2.72096,5.7102-1.04984,4.75873-7.38467,4.80707-8.18191,.06247-16.36467,.01516-24.54705,.01512-1.10355,0-2.20707-.00002-4.00873-.00002,20.15331-43.15766,40.04615-85.75756,59.94106-128.3619h15.31387c20.00787,42.4749,40.09169,85.11099,60.3512,128.12017Zm-67.65883-73.04429c-4.7615,9.45158-8.80344,18.5402-13.12963,27.79438h25.92502c-4.26273-9.25956-8.36738-18.17578-12.79539-27.79438Z"/><path d="M688.50524,361.0602c19.96326-42.74779,39.79279-85.20946,59.69285-127.8219h15.39936c19.94685,42.34498,40.00262,84.92137,60.20376,127.80643-.95788,.18707-1.66662,.44415-2.3762,.44617-9.54628,.02727-19.09306-.02929-28.63851,.06093-1.87404,.01772-2.8703-.59785-3.62717-2.29991-2.11992-4.76772-4.40736-9.46109-6.7038-14.34331h-52.73293c-1.73515,3.74071-3.53883,7.62879-5.34217,11.51704-.52523,1.13257-1.1105,2.24217-1.55788,3.40467-.47569,1.23612-1.28078,1.69861-2.59935,1.69308-10.11398-.04258-20.22829-.03361-30.34243-.05666-.30891-.00071-.61741-.17598-1.37553-.40652Zm67.78-72.72065c-4.24732,7.44555-12.27161,25.2726-12.54772,27.68758,6.85026,.58046,22.45203,.34087,25.11284-.45122-4.11635-8.92265-8.21796-17.8134-12.56512-27.23636Z"/><path d="M898.51978,162.04897c-2.2655,4.91293-4.51927,9.74453-6.71558,14.60208-.55804,1.2342-1.18581,2.02858-2.7419,2.01874-10.11273-.06403-20.22592-.04252-30.33894-.065-.31078-.00069-.6212-.17621-1.21608-.35628,.33822-.87095,.60284-1.68921,.96387-2.46256,19.10588-40.92689,38.24003-81.8407,57.27835-122.79898,1.03011-2.21613,2.24902-2.98933,4.61923-2.87428,3.85115,.1869,7.71796,.05036,11.95575,.05036,20.06284,42.5959,40.14346,85.22956,60.40618,128.24983-1.42586,.10534-2.29306,.2238-3.16039,.22507-9.20423,.0135-18.40917-.05117-27.61223,.05327-2.11708,.02403-3.2698-.65786-4.12189-2.60942-2.04165-4.67573-4.30245-9.25595-6.54913-14.03283h-52.76724Zm39.35703-28.89135c-4.28479-9.29035-8.41355-18.24245-12.89647-27.96239-4.56323,9.76793-8.74944,18.72881-13.06304,27.96239h25.95951Z"/><path d="M536.36093,251.74914c-7.87499,7.66402-15.75182,15.32975-23.79742,23.15969-7.4197-6.43706-16.50511-8.98299-26.74724-7.26693-7.2282,1.21111-13.29002,4.52615-17.93627,10.23309-9.49049,11.65708-8.53387,30.29174,1.88927,40.93742,9.91398,10.12565,29.94443,12.51727,43.37184,.13868,7.869,7.74396,15.75299,15.50274,23.62898,23.25358-19.40147,21.41271-58.96221,28.12801-87.43843,3.49416-28.28671-24.46983-29.62419-68.0325-2.84207-94.21554,27.33359-26.72204,68.59083-22.36992,89.87134,.26586Z"/><path d="M863.21382,266.45452h-33.18458v-33.34965h100.77907v33.29885h-33.80674v94.83761h-33.68001c-.23064-7.90702-.07261-15.8008-.10142-23.68925-.02881-7.83538-.00633-15.67098-.00633-23.50646v-47.5911Z"/></g></g></g></svg>